<svg id="Camada_1" data-name="Camada 1" xmlns="http://www.w3.org/2000/svg" xmlns:xlink="http://www.w3.org/1999/xlink" viewBox="0 0 256 256"><defs><style>.cls-1{fill:none;}.cls-2{fill:#1f2229;}.cls-3{fill:#fbfbfb;}.cls-4{clip-path:url(#clip-path);}.cls-5{fill:#fae800;}</style><clipPath id="clip-path" transform="translate(-0.01)"><polygon class="cls-1" points="136 184 176 85 245 85 236 196 151 203 136 184"/></clipPath></defs><title>favicon</title><rect class="cls-2" width="256" height="256"/><path class="cls-3" d="M142.38,84.81l-10.33,32.24h3.19l-1.68,9.1a28.31,28.31,0,0,1,9.11-7,27.28,27.28,0,0,1,12.1-2.63,26.35,26.35,0,0,1,7.78,1.09l13.32-32.85Zm4.18,56.62a8.45,8.45,0,0,0-5.81-1.86,11.1,11.1,0,0,0-7.25,2.4,10.89,10.89,0,0,0-3.77,6.47L123.37,184h12.29l11.8-29.11,1.08-6.11a13.21,13.21,0,0,0,.12-2A6.75,6.75,0,0,0,146.56,141.43ZM86.05,84.81,61.67,147.3l2-62.49H30.14L35.33,184H74l21.44-56.33L97,183l11.69-65.91h12.55L120,84.81Z" transform="translate(-0.01)"/><g class="cls-4"><path class="cls-5" d="M215.82,122.32q5.94,5.75,5.93,15.93a39,39,0,0,1-.72,7.19l-6.95,39.19H187.6L194,148.8a13.21,13.21,0,0,0,.12-2,6.78,6.78,0,0,0-2.09-5.33,8.48,8.48,0,0,0-5.82-1.86,11.23,11.23,0,0,0-7.24,2.34,10.64,10.64,0,0,0-3.78,6.41l-6.47,36.31H142.19l6.35-35.83a13.21,13.21,0,0,0,.12-2,6.75,6.75,0,0,0-2.1-5.33,8.45,8.45,0,0,0-5.81-1.86,11.1,11.1,0,0,0-7.25,2.4,10.89,10.89,0,0,0-3.77,6.47l-6.47,36.19H96.66l12-67.58h26.6l-1.68,9.1a28.31,28.31,0,0,1,9.11-7,27.28,27.28,0,0,1,12.1-2.63,23,23,0,0,1,12.4,3.17,18,18,0,0,1,7.37,9,39,39,0,0,1,11-8.81,27.63,27.63,0,0,1,13.36-3.41Q209.88,116.57,215.82,122.32Z" transform="translate(-0.01)"/></g></svg>